# xmcd
#
# Track frame offsets: 
#        150
#        10670
#        26442
#        38430
#        49017
#        65320
#        77425
#        90627
#        101730
#        115254
#        127972
#        138662
#        150950
#        163897
#        173832
#        187325
#        198630
#        210097
#        224655
#        234402
#        244330
#        258055
#        269520
#        281122
#
# Disc length: 3907 seconds
#
# Revision: 0
# Processed by: cddbd v1.5.2PL0 Copyright (c) Steve Scherf et al.
# Submitted via: ExactAudioCopyFreeDBPlugin 1.0
#
DISCID=4c0f4118
DTITLE=Various Artist - Le Gospel 1939-1952 CD 3 Le Gospel au Féminin
DYEAR=2003
DGENRE=Gospel
TTITLE0=Sister Rosetta Tharpe - Sin is to Blame
TTITLE1=Sister Rosetta Tharpe and Marie Knight - Milky White Way
TTITLE2=Marie Knight - The Florida Storm
TTITLE3=Mahalia Jackson - In the Upper Room pt.1
TTITLE4=Mahalia Jackson - In the Upper Room pt.2
TTITLE5=Edna Gallmon Cook - I've been Redeemed
TTITLE6=Ethel Davenport - Show me the Way
TTITLE7=Arizona Dranes  - My Soul is a Witness
TTITLE8=Kate McTell - Dying Gambler
TTITLE9=Sister Matthews - Stand by Me
TTITLE10=Willie Mae Williams - Don't Want to go Home
TTITLE11=Evangelist Sister Rosetta Winn - Building on the Good Share
TTITLE12=Sister Wynona Carr - I'm a Pilgrim Traveler
TTITLE13=Sister Goldia Haynes - That Great Judgement Day
TTITLE14=Clara Ward - How I Got Over
TTITLE15=Original Gospel Harmonettes - Every Day will be Sunday
TTITLE16=Southern Revivalists of New Orleans - Get Right with God
TTITLE17=Jackson Gospel Singers - Count Your Blessings
TTITLE18=Sallie Martin Singers - Great Day
TTITLE19=Cora Martin - Didn't it Rain
TTITLE20=Angelic Gospel Singers - Jesus
TTITLE21=Sister Birch - The Tree of Life
TTITLE22=Madame Ernestine - I'll Never Turn Back
TTITLE23=Sister Lottie Peavey - Nobody's Fault but Mine
EXTD=
EXTT0=
EXTT1=
EXTT2=
EXTT3=
EXTT4=
EXTT5=
EXTT6=
EXTT7=
EXTT8=
EXTT9=
EXTT10=
EXTT11=
EXTT12=
EXTT13=
EXTT14=
EXTT15=
EXTT16=
EXTT17=
EXTT18=
EXTT19=
EXTT20=
EXTT21=
EXTT22=
EXTT23=
PLAYORDER=
